<?xml version="1.0" encoding="utf-8"?>
<!DOCTYPE svg PUBLIC "-//W3C//DTD SVG 1.1//EN" "http://www.w3.org/Graphics/SVG/1.1/DTD/svg11.dtd">
<svg version="1.1" xmlns="http://www.w3.org/2000/svg" x="0" y="0" width="22" height="22" viewBox="0 0 22 22">
<style type="text/css">
	.st0{fill:none;stroke:#000;stroke-width:0.75;stroke-linecap:round;stroke-linejoin:round;}
	.st1{fill:#268DC0;stroke:#000;stroke-width:0.25;stroke-linejoin:round;}
	.st2{fill:none;stroke:#000;stroke-width:0.25;}
	.st3{fill:#E5E5E5;stroke:#000;stroke-width:0.25;stroke-linejoin:round;}
</style>
<path class="st0" d="M1.8,14.7c1.4,0.1,3.6,0.3,4.5-0.3s3.5-3.8,2.8-4.9S6,12.3,5.6,16c-0.4,3.7-2,4.4-3.3,4.4s2-6.3,5-5.8
	c1.5,0.3,0.9,2.4,1,2.5c0.4-1.6,2.4-4.5,4.2,2.8"/>
<polygon class="st1" points="14.8,1.8 12.3,10.7 18,12.5 20.4,3.5 "/>
<line class="st2" x1="16.6" y1="2.2" x2="14.1" y2="11.2"/>
<polygon class="st3" points="12.3,10.7 12.5,20 18,12.5 "/>
<polygon points="12.5,16.5 12.5,20 14.6,17.1 "/>
<line class="st2" x1="19.3" y1="3.1" x2="16.9" y2="12.1"/>
</svg>
